<svg width="8" height="15" viewBox="0 0 8 15" fill="none" xmlns="http://www.w3.org/2000/svg">
<path fill-rule="evenodd" clip-rule="evenodd" d="M7.83216 0.169473C7.88537 0.223058 7.92758 0.286715 7.95638 0.356797C7.98518 0.426879 8 0.50201 8 0.577887C8 0.653763 7.98518 0.728894 7.95638 0.798977C7.92758 0.869059 7.88537 0.932716 7.83216 0.9863L1.3801 7.50015L7.83216 14.014C7.93944 14.1223 7.9997 14.2692 7.9997 14.4224C7.9997 14.5756 7.93944 14.7225 7.83216 14.8308C7.72489 14.9391 7.5794 15 7.4277 15C7.27599 15 7.1305 14.9391 7.02323 14.8308L0.167835 7.90857C0.114634 7.85498 0.0724241 7.79132 0.0436241 7.72124C0.0148241 7.65116 0 7.57603 0 7.50015C0 7.42428 0.0148241 7.34914 0.0436241 7.27906C0.0724241 7.20898 0.114634 7.14532 0.167835 7.09174L7.02323 0.169473C7.0763 0.115753 7.13934 0.0731311 7.20874 0.0440502C7.27815 0.0149692 7.35255 0 7.4277 0C7.50284 0 7.57725 0.0149692 7.64665 0.0440502C7.71606 0.0731311 7.7791 0.115753 7.83216 0.169473Z" fill="#E50914"/>
</svg>
